<svg width="14" height="12" xmlns="http://www.w3.org/2000/svg">
 <style>.col-1 {
    fill: #F35C78;
    }</style>

 <g>
  <title>background</title>
  <rect fill="none" id="canvas_background" height="402" width="582" y="-1" x="-1"/>
 </g>
 <g>
  <title>Layer 1</title>
  <g id="svg_4">
   <path id="svg_3" stroke-width="0.1" fill="#4C362F" stroke="#4C362F" d="m12.86249,1.09333c-0.73458,-0.71964 -1.71111,-1.11565 -2.75,-1.11565c-1.03905,0 -2.01569,0.39601 -2.75053,1.11565l-0.36199,0.35468l-0.36198,-0.35468c-0.73462,-0.71964 -1.71148,-1.11565 -2.75031,-1.11565c-1.03878,0 -2.01572,0.39601 -2.75026,1.11565c-1.51656,1.48579 -1.51656,3.90322 0,5.38843l5.43425,5.3235c0.08885,0.08737 0.19947,0.14086 0.31503,0.16145c0.03876,0.0075 0.07773,0.01097 0.11678,0.01097c0.15373,0 0.30772,-0.05744 0.4248,-0.17242l5.43425,-5.3235c1.51663,-1.48521 1.51663,-3.90264 -0.00004,-5.38843l0,0z" clip-rule="nonzero" fill-rule="nonzero"/>
  </g>
 </g>
</svg>